G04 Filename: MyAnt.gbl*
G04 FileFunction: Copper,L2,Bot,Signal*
G04 Part: Single*
G04 ProjectId: MyAnt,3C562D9BC1F7CBD279EDE99D0E60B229,1*
G04 GenerationSoftware: MathWorks,MATLAB,9.13.0.2049777 (R2022b)*
G04 CreationDate: 2022-11-11T10:44:31-0800*
G04 FilePolarity: Positive*
%FSLAX16Y16*%
%MOIN*%
%ADD10C,0.03937007874*%  G04 Center pin of SMA connector*
G04 Antenna metal layer 2*
%LPD*%
G01*
G36*
X0000000Y-1181102D02*
X0598425D01*
Y0000000D01*
X0000000D01*
Y-1181102D01*
G37*
G04 Add SMA connector*
%LPC*%
G36*
X0021654Y-0068898D02*
X0218504D01*
Y0049213D01*
X0021654D01*
Y-0068898D01*
D02*
G37*
G36*
X0061024Y-0108268D02*
X0179134D01*
Y0088583D01*
X0061024D01*
Y-0108268D01*
D02*
G37*
%LPD*%
G36*
X0021654Y0049213D02*
X0061024D01*
Y0088583D01*
X0021654D01*
Y0049213D01*
D02*
G37*
G36*
Y-0108268D02*
X0061024D01*
Y-0068898D01*
X0021654D01*
Y-0108268D01*
D02*
G37*
G36*
X0179134D02*
X0218504D01*
Y-0068898D01*
X0179134D01*
Y-0108268D01*
D02*
G37*
G36*
Y0049213D02*
X0218504D01*
Y0088583D01*
X0179134D01*
Y0049213D01*
D02*
G37*
D10*
X0120079Y-0009843D03*
G04 MD5: c0fc68162209ceda24ffb7957da82de722e5283ff79785ad3e6cc74618b3e05ae3349ec3322fb87c7963c697ef82edc5db9b6c43821e96f1947bf2fca*
M02*
